<svg width="70" height="24" viewBox="0 0 142 24" fill="none" xmlns="http://www.w3.org/2000/svg">
<path d="M14.008 23L6.456 13.08V23H0.984V0.535999H6.456V10.392L13.944 0.535999H20.376L11.672 11.544L20.696 23H14.008ZM36.2525 23L31.5805 14.52H30.2685V23H24.7965V0.535999H33.9805C35.7512 0.535999 37.2552 0.845332 38.4925 1.464C39.7512 2.08267 40.6898 2.936 41.3085 4.024C41.9272 5.09067 42.2365 6.28533 42.2365 7.608C42.2365 9.10133 41.8098 10.4347 40.9565 11.608C40.1245 12.7813 38.8872 13.6133 37.2445 14.104L42.4285 23H36.2525ZM30.2685 10.648H33.6605C34.6632 10.648 35.4098 10.4027 35.9005 9.912C36.4125 9.42133 36.6685 8.728 36.6685 7.832C36.6685 6.97867 36.4125 6.30667 35.9005 5.816C35.4098 5.32533 34.6632 5.08 33.6605 5.08H30.2685V10.648ZM57.7955 23.224C55.6835 23.224 53.7422 22.7333 51.9715 21.752C50.2222 20.7707 48.8248 19.4053 47.7795 17.656C46.7555 15.8853 46.2435 13.9013 46.2435 11.704C46.2435 9.50667 46.7555 7.53333 47.7795 5.784C48.8248 4.03467 50.2222 2.66933 51.9715 1.688C53.7422 0.706666 55.6835 0.216 57.7955 0.216C59.9075 0.216 61.8382 0.706666 63.5875 1.688C65.3582 2.66933 66.7448 4.03467 67.7475 5.784C68.7715 7.53333 69.2835 9.50667 69.2835 11.704C69.2835 13.9013 68.7715 15.8853 67.7475 17.656C66.7235 19.4053 65.3368 20.7707 63.5875 21.752C61.8382 22.7333 59.9075 23.224 57.7955 23.224ZM57.7955 18.232C59.5875 18.232 61.0168 17.6347 62.0835 16.44C63.1715 15.2453 63.7155 13.6667 63.7155 11.704C63.7155 9.72 63.1715 8.14133 62.0835 6.968C61.0168 5.77333 59.5875 5.176 57.7955 5.176C55.9822 5.176 54.5315 5.76267 53.4435 6.936C52.3768 8.10933 51.8435 9.69867 51.8435 11.704C51.8435 13.688 52.3768 15.2773 53.4435 16.472C54.5315 17.6453 55.9822 18.232 57.7955 18.232ZM99.2678 0.535999V23H93.7958V9.528L88.7718 23H84.3558L79.2998 9.496V23H73.8278V0.535999H80.2917L86.5958 16.088L92.8358 0.535999H99.2678ZM110.175 4.92V9.464H117.503V13.688H110.175V18.616H118.463V23H104.703V0.535999H118.463V4.92H110.175ZM134.971 23L130.299 14.52H128.987V23H123.515V0.535999H132.699C134.47 0.535999 135.974 0.845332 137.211 1.464C138.47 2.08267 139.409 2.936 140.027 4.024C140.646 5.09067 140.955 6.28533 140.955 7.608C140.955 9.10133 140.529 10.4347 139.675 11.608C138.843 12.7813 137.606 13.6133 135.963 14.104L141.147 23H134.971ZM128.987 10.648H132.379C133.382 10.648 134.129 10.4027 134.619 9.912C135.131 9.42133 135.387 8.728 135.387 7.832C135.387 6.97867 135.131 6.30667 134.619 5.816C134.129 5.32533 133.382 5.08 132.379 5.08H128.987V10.648Z" fill="url(#paint0_linear_10_263)"/>
<defs>
<linearGradient id="paint0_linear_10_263" x1="2" y1="4.33928" x2="128.82" y2="55.2084" gradientUnits="userSpaceOnUse">
<stop stop-color="#9B51E0"/>
<stop offset="1" stop-color="#3081ED"/>
</linearGradient>
</defs>
</svg>
